<svg enable-background="new 0 0 681.6 263.6" height="263.6" viewBox="0 0 681.6 263.6" width="681.6" xmlns="http://www.w3.org/2000/svg"><path d="m129.6 140.7c-3.1-5.8-7.4-10.2-12.8-13.2s-11.6-4.4-18.5-4.4c-5.4 0-10.5.9-15.1 2.7-.3.1-.6.3-.9.4-4.9 2.1-8.9 5-12.1 8.9v-41.6h-9c-5.4 0-9.8 4.4-9.8 9.8v112h18.8v-50.7c0-8.1 2.1-14.3 6.2-18.7 2.1-2.2 4.7-3.9 7.6-5 2.7-1 5.8-1.5 9.1-1.5 7 0 12.6 2.2 16.6 6.5 4.1 4.3 6.1 10.6 6.1 18.7v40.9c0 5.4 4.4 9.8 9.8 9.8h8.8v-53.5c-.1-8.2-1.6-15.3-4.8-21.1z" fill="#000989"/><path d="m340.8 158c-.9-4.6-2.4-8.8-4.5-12.8-3.7-7.1-8.8-12.5-15.3-16.4-6.5-3.8-13.7-5.8-21.7-5.8-6.8 0-13 1.4-18.5 4.2s-9.9 6.4-13.1 10.8v-44.5h-18.8v121.8h18.8v-13.2c3.2 4.3 7.5 7.8 12.9 10.5 3.4 1.7 7.1 2.9 11.2 3.5 2.4.4 4.9.6 7.5.6 7.9 0 15.1-2 21.6-6s11.7-9.6 15.4-16.8 5.6-15.3 5.6-24.4c0-4-.4-7.9-1.1-11.5zm-21.9 28c-2.6 4.7-6 8.3-10.2 10.8s-8.8 3.7-13.6 3.7c-1.3 0-2.5-.1-3.7-.3-3.4-.5-6.6-1.6-9.7-3.4-4.2-2.4-7.6-5.9-10.2-10.6s-3.9-10.1-3.9-16.4 1.3-11.7 3.9-16.3 6-8.1 10.2-10.5 8.7-3.6 13.4-3.6c4.8 0 9.4 1.2 13.6 3.5 4.2 2.4 7.6 5.8 10.2 10.4 1.4 2.5 2.4 5.2 3 8.1.6 2.5.8 5.2.8 8.1.1 6.3-1.2 11.8-3.8 16.5z" fill="#000989"/><path d="m478.7 145.3c-4.1-7.1-9.6-12.6-16.6-16.5-2.6-1.4-5.4-2.6-8.2-3.5-4.8-1.5-9.9-2.2-15.3-2.2-8.7 0-16.5 1.9-23.5 5.8-7 3.8-12.6 9.3-16.6 16.5-4.1 7.1-6.1 15.3-6.1 24.5 0 9.3 2 17.5 5.9 24.6 4 7.1 9.4 12.6 16.3 16.5s14.7 5.8 23.2 5.8c8.7 0 16.6-1.9 23.8-5.8s12.9-9.4 17-16.5c.3-.5.5-1 .8-1.4 3.6-6.8 5.4-14.5 5.4-23.1 0-9.4-2.1-17.5-6.1-24.7zm-17.2 41.3c-2.6 4.6-6.1 8.1-10.3 10.4s-8.8 3.5-13.6 3.5c-7.6 0-13.9-2.7-18.9-8s-7.5-12.9-7.5-22.6c0-6.6 1.2-12.2 3.6-16.7 2.4-4.6 5.7-8 9.8-10.3s8.6-3.5 13.4-3.5c3.3 0 6.4.5 9.3 1.6 1.4.5 2.8 1.1 4.2 1.9 4.2 2.3 7.5 5.7 10 10.3 2.5 4.5 3.8 10.1 3.8 16.7 0 5.5-.9 10.2-2.7 14.3-.2.8-.6 1.6-1.1 2.4z" fill="#000989"/><path d="m134.3 161.8v8.2c-6.6-.6-12.9-2.4-18.6-5v-.3c0-8.1-2-14.3-6.1-18.7-4.1-4.3-9.6-6.5-16.6-6.5-3.4 0-6.4.5-9.1 1.5-.6-3.3-.9-6.7-.9-10.2 0-1.6.1-3.3.2-4.9 4.6-1.8 9.7-2.7 15.1-2.7 6.9 0 13.1 1.5 18.5 4.4 5.4 3 9.7 7.4 12.8 13.2 3.2 5.7 4.7 12.8 4.7 21z" fill="#00beff"/><path d="m233.1 134.4v80.9h-8.9c-5.4 0-9.8-4.4-9.8-9.8v-.9c-3 3.7-6.8 6.7-11.6 8.8s-9.8 3.2-15.2 3.2c-7.1 0-13.5-1.5-19.2-4.5s-10.1-7.3-13.3-13.2c-2.1-3.7-3.5-7.9-4.2-12.6-.4-2.7-.6-5.5-.6-8.4v-53.3h18.6v50.5c0 1.5.1 2.9.2 4.2.6 6.1 2.6 10.9 5.9 14.5 4 4.3 9.6 6.5 16.6 6.5s12.6-2.2 16.7-6.5 6.2-10.6 6.2-18.7v-50.5h9c5.2 0 9.6 4.4 9.6 9.8z" fill="#000989"/><path d="m320.9 210.8c-6.5 4-13.7 6-21.6 6-2.6 0-5.1-.2-7.5-.6-.5-2.9-.8-6-.8-9 0-2.4.2-4.7.5-6.9 1.2.2 2.5.3 3.7.3 4.8 0 9.4-1.2 13.6-3.7s7.6-6.1 10.2-10.8 3.9-10.2 3.9-16.5c0-2.9-.3-5.6-.8-8.1 5.6-2.2 11.7-3.4 18.1-3.4h.7c.7 3.6 1.1 7.5 1.1 11.5 0 9.1-1.9 17.3-5.6 24.4-3.8 7.1-9 12.7-15.5 16.8z" fill="#fac900"/><path d="m376.4 93.5v121.8h-8.9c-5.4 0-9.8-4.4-9.8-9.8v-112z" fill="#000989"/><path d="m392.2 170.2c0-8.6 1.5-16.3 5.1-23.1 6.1 1.7 11.7 4.5 16.4 8.5-1.7 4.1-2.4 9-2.4 14.5 0 12.6 4.6 24.4 18 29.1-1.1 5.7-3.1 10.8-6.1 15.4-2.9-.9-5.7-2-8.3-3.4-7-3.8-12.6-9.3-16.6-16.5-4-7.1-6.1-15.2-6.1-24.5z" fill="#1563ff"/><path d="m519.5 190.1c0 3.4.8 5.8 2.4 7.3s4.3 2.2 8.2 2.2h11.5v5.8c0 5.4-4.4 9.8-9.8 9.8h-5c-8.4 0-14.9-2-19.4-5.9-3.9-3.4-6.1-8.6-6.6-15.7-.1-1.2-.2-2.3-.2-3.6v-50.2h-10.7v-15.3h10.7v-22.5h18.9v22.5h22.1v15.3h-22.1z" fill="#000989"/><path d="m612.2 58c-.1-.1-.1-.2-.1-.2s0-.1-.1-.1c0-.1-.1-.2-.2-.3v-.1s0-.1-.1-.1c-.7-1-2-1.6-2.7-1.9h-.1c-.1 0-.1-.1-.2-.1s-.2-.1-.4-.1h-.1c-.1 0-.1 0-.2-.1 0 0-.1 0-.1-.1-.2-.1-.4-.1-.6-.2-.1 0-.2-.1-.4-.1h-.1c-.1 0-.1 0-.2-.1-.2-.1-.4-.1-.6-.2-.1 0-.2-.1-.4-.1-.3-.1-.6-.2-.9-.3-.1-.1-.3-.1-.4-.2h-.1c-.1 0-.2-.1-.3-.1-.5-.2-1-.3-1.4-.5-1.3-.5-2.6-1-3.9-1.4-.3-.1-.7-.2-1-.4-.1 0-.2-.1-.4-.1-.1 0-.3-.1-.4-.1-.1 0-.3-.1-.4-.1-.4-.2-.8-.3-1.1-.4-.4-.1-.7-.3-1-.4-.1 0-.3-.1-.4-.1h-.1c-.1 0-.1 0-.1 0l-3.6-1.3-.7-.2-.8-.3-1-.3-.2-.1 5.6 3.5s2 1.2 3.8 2.5c3.1 2.2 5.8 5 7.7 8.3 0 0 0 .1.1.2 0 0 .1.1.1.2 0 0 .1.1.1.2 0 0 0 0 .1.1s.1.2.2.3c.2.2.5.4.7.6.3.2.6.5.9.8.2.2.5.5.8.7 0 .1.1.1.2.2l.2-.2 1.2-1.6 2.7-3.7.4-2c0 .1 0 .1 0 0z" fill="#1563ff"/><path d="m623.7 78.1c0-.1 0-.1 0 0l-.2-.3-.3-.5s-.1-.1-.1-.2-.1-.1-.1-.2c0 0 0-.1-.1-.1 0 0-.1-.1-.1-.1s-.1-.1-.1-.2-.1-.1-.1-.2c-.1-.1-.2-.3-.2-.4-.1-.1-.1-.2-.2-.3s-.1-.2-.2-.3-.1-.2-.2-.3-.1-.2-.2-.3-.1-.2-.2-.4-.2-.3-.3-.5-.3-.5-.4-.8c-.1-.2-.2-.4-.3-.5 0-.1-.1-.1-.1-.2-.1-.1-.1-.2-.2-.3-.1-.2-.2-.4-.4-.6 0-.1-.1-.1-.1-.2-.2-.3-.3-.6-.5-.8-.8-1.3-1.5-2.6-2.1-3.7 0-.1-.1-.2-.1-.2-.1-.1-.2-.3-.2-.4-.1-.1-.1-.2-.2-.3 0-.1-.1-.2-.1-.2-.1-.1-.1-.2-.2-.4-.1-.2-.2-.4-.3-.6 0-.1-.1-.1-.1-.1v-.1s0-.1-.1-.1l-.2-.4-.1-.2-.4-.7-.9-1.6-.4-.8-.7-1.2-.1-.2-.5-.8c-.1-.1-.1-.2-.2-.3l-.8 1.1-2.7 3.7-1.2 1.6-.2.2c4.4 4.4 7.5 10.2 8.7 16.6.1.3.1.6.2.9l.3.5.5-.3.4-.2.9-.5h.1l.9-.6 2.5-1.4.2-.1.1-.1 1-.6.6-.3z" fill="#1563ff"/><path d="m615.1 64.5c0-.1 0-.1 0 0" fill="none"/><path d="m623.9 78.4-.2-.3s0 0 0-.1c0 0 0 0 0-.1 0 0-.1-.2-.3-.6 0 0-.1-.1-.1-.2s-.1-.1-.1-.2c0 0 0-.1-.1-.1 0 0-.1-.1-.1-.1s-.1-.1-.1-.2-.1-.1-.1-.2c-.1-.1-.2-.3-.2-.4-.1-.1-.1-.2-.2-.3s-.1-.2-.2-.3-.1-.2-.2-.3-.1-.2-.2-.3-.1-.2-.2-.4-.2-.3-.3-.5-.3-.5-.4-.8c-.1-.2-.2-.4-.3-.5 0-.1-.1-.1-.1-.2-.1-.1-.1-.2-.2-.3-.1-.2-.2-.4-.4-.6 0-.1-.1-.1-.1-.2-.2-.3-.3-.6-.5-.8-.8-1.3-1.5-2.6-2.1-3.7 0-.1-.1-.2-.1-.2-.1-.1-.2-.3-.2-.4-.1-.1-.1-.2-.2-.3 0-.1-.1-.2-.1-.2-.1-.1-.1-.2-.2-.4-.1-.2-.2-.4-.3-.6 0-.1-.1-.1-.1-.1v-.1s0-.1-.1-.1l-.2-.4-.1-.2-.6-.7-.9-1.6-.4-.8-.7-1.2-.1-.2-.5-.8 2 6.2s.7 2.2 1.3 4.3c1 3.7 1.2 7.6.5 11.3 0 .1-.1.5-.2 1 .1.3.1.6.2.9.2 1.5.4 3.1.4 4.7 0 5.6-1.5 10.9-4.1 15.5v.1c-.1.2-.2.4-.3.5v.1l-.1.6h.2l.4.1.7.2.6.1.3.1.8.2 2.5.6h.1l.6.1h.2l1.2.3.7.2.2-.6s0 0 0-.1.1-.4.1-.8c0-.1 0-.2 0-.3 0-.2.1-.4.1-.6 0-.1 0-.1 0-.2s0-.1 0-.2c0-.2.1-.3.1-.5 0-.1 0-.2 0-.3 0 0 0 0 0-.1s0-.2 0-.3c0 0 0 0 0-.1v-.1c0-.1 0-.1 0-.2s0-.1 0-.2 0-.1 0-.2c0-.2.1-.4.1-.7 0-.2.1-.3.1-.5 0-.2.1-.3.1-.5.1-.4.2-.8.2-1.3 0-.1 0-.2.1-.3 0-.2.1-.5.1-.7s.1-.4.1-.6.1-.4.1-.6.1-.4.1-.6c0-.3.1-.5.2-.8 0-.3.1-.6.2-.9 0 0 0 0 0-.1s0-.2.1-.4c0-.1 0-.2.1-.4 0-.2.1-.3.1-.5 0-.3.1-.6.2-.9 0-.1 0-.1 0-.2 0-.2.1-.4.1-.5 0-.2.1-.4.1-.6 0-.1 0-.2.1-.3 0-.1 0-.2 0-.3 0 0 0 0 0-.1v-.1c0-.1 0-.1 0-.1l.2-1 .1-.4.1-.7.2-1.2.1-.8.1-.3v-.3l.1-.4c.1-.4.1-.7.2-1 .1-.5.2-.9.2-1.1.1-.3.1-.5.1-.8.2-.6-.1-1.5-.6-2.3z" fill="#00beff"/><path d="m602.3 119-.7-.8-.1-.1-.9-1-1.6-1.9c-.9.6-3.1 1.7-6.9 2.6-.7.1-1.3.2-1.9.3-.4 0-.7.1-1.1.1-1.3.2-2.7.3-4.1.3-3.4 0-6.7-.5-9.8-1.5-.6-.2-1.2-.4-1.7-.6v.1.5 1.4 1.3.5l-.1 2.5v.4.3.6.7h.7 2 .4 1.6.2 2.7 1.2.4 1.8 1.6.7 1.2 2.1 1 5.1 1.5.1c.9 0 1.7-.3 2.5-.8l1.5-1.2.7-.6c.6-.6.9-1.4.9-2.2z" fill="#1563ff"/><path d="m577.2 120.9c.1.1.1.1 0 0" fill="none"/><path d="m590 123.4s-2.3-.6-4.5-1.1c-3.7-1-7.1-2.7-10-5.1 0 0-.2-.1-.3-.3-.6-.2-1.2-.4-1.7-.6-6.4-2.5-11.8-7.1-15.3-12.9-.1-.2-.2-.3-.3-.4 0-.1-.1-.2-.1-.2 0-.1-.1-.1-.1-.2-.1-.2-.2-.3-.3-.5l-.3.3-.1.1-1.1 1-.1.1-.4.4-.6.5-2 1.8-.1.1-.3.3-.7.6-.5.5h.2l.5.4s-.1.2.1.4c0 0 .1.1.1.1.1.1.1.1.2.2s.1.1.1.1c.1.1.2.1.3.2.9.8 3.1 2.6 5.4 4.5.5.4 1 .8 1.4 1.2.1.1.2.1.2.2.9.7 1.7 1.4 2.4 2 .2.1.3.3.5.4.4.3.8.6 1 .9.5.4.8.6.8.7l1.4 1.2.4.4.6.5.6.5.5.4.4.4.6.5.2.1.2.2.2.2c.3.2.5.4.6.5.4.4 1 .7 1.7.8.5.1 1 .2 1.4.2h.7 2 .4 1.6.2 2.7 1.2.4 1.8 1.6.7 1.2 2.1 1 5.1z" fill="#00beff"/><path d="m550 85c0 .1 0 .1 0 0z" fill="#fac900"/><path d="m565.3 117.9s-1.4-1.8-2.7-3.6c-2.2-3.1-3.7-6.7-4.4-10.4 0-.1 0-.2-.1-.5-.1-.2-.2-.3-.3-.4 0-.1-.1-.2-.1-.2 0-.1-.1-.1-.1-.2s-.1-.2-.1-.2c0-.1-.1-.2-.1-.2-.3-.6-.7-1.3-1-1.9-.1-.2-.2-.4-.3-.6s-.1-.3-.2-.5c0 0 0-.1-.1-.1 0-.1-.1-.2-.1-.3-.1-.3-.2-.6-.3-.9-.1-.2-.2-.4-.2-.6-.2-.7-.4-1.4-.6-2.1-.1-.4-.2-.7-.3-1.1-.2-.7-.3-1.3-.4-2 0-.1 0-.3-.1-.4 0-.2-.1-.4-.1-.6 0-.3-.1-.5-.1-.8s-.1-.5-.1-.8c0-.2 0-.5 0-.7 0-.1 0-.1 0-.2 0-.2 0-.5 0-.7 0-.3 0-.5 0-.8s0-.6 0-.8 0-.4 0-.7c0-.1 0-.2 0-.3 0-.2 0-.4 0-.7 0-.2 0-.5.1-.7 0-.5.1-1 .2-1.5 0-.2.1-.5.1-.8.1-.3.1-.6.2-.9v-.2l-.6.1h-.3l-.5.1-.5.1-1.2.1-2.5.3-.4.1h-.4l-1.2.2-.6.1v.4.2.1c0 .1 0 .2.1.4v.1s0 .1 0 .2 0 .3.1.4v.2.2c0 .1 0 .3.1.4 0 .1 0 .3.1.4 0 .2 0 .3.1.5.1.4.1.8.2 1.2 0 .1 0 .3.1.5 0 .2.1.5.1.7.1.5.2 1.1.3 1.6.2.9.3 1.9.5 2.8 0 .3.1.5.1.8.1.5.2 1.1.3 1.6v.2c.1.3.1.7.2 1 0 .1 0 .3.1.4 0 .2.1.3.1.5v.3.2c0 .2.1.3.1.5v.2c0 .2.1.3.1.4 0 .1 0 .2.1.3v.1.1s0 0 0 0l.1.4.2 1.2.2 1.2.4 2.1.1.3v.2.2.2.3.1.1c.1.5.2.9.2 1 .1.8.6 1.5 1.1 2.1.3.3.6.6.8.8 0 0 .1.1.1.1.1.1.1.1.2.2s.1.1.1.1c.1.1.2.1.3.2.9.8 3.1 2.6 5.4 4.5.5.4 1 .8 1.4 1.2.1.1.2.1.2.2.9.7 1.7 1.4 2.4 2 .2.1.3.3.5.4.4.3.8.6 1 .9.5.4.8.6.8.7l1.4 1.2.4.4.6.5.6.5.5.4.4.4.6.5.2.1.2.2.2.2zm-15.3-32.9c0 .1 0 .1 0 0z" fill="#fac900"/><path d="m565 61.8-1.2-1-.2-.1-.9-.7-2.3-1.9-.1-.1-1-.8-.6-.5v.1l-.2.1-.2.4v.1c-.1.1-.2.3-.3.5s0 .1-.1.2c0 .1-.1.1-.1.2s-.1.2-.1.2c0 .1-.1.1-.1.2-.1.2-.2.3-.3.5s-.2.4-.3.5-.1.2-.2.3c-.2.3-.4.6-.5 1-.3.5-.5 1-.8 1.5-.1.2-.3.5-.4.8-.1.1-.1.2-.1.2-.5.8-1 1.7-1.5 2.6-.1.2-.2.4-.4.6-.5.9-1.1 1.9-1.6 2.8-.2.3-.4.6-.5.9-.2.4-.5.8-.7 1.3l-.5.9-2.8 4.8c-.2.4-.4.7-.5.8-.4.7-.6 1.5-.6 2.4 0 .5 0 .9.2 1.4v.1c0 .1 0 .2.1.4v.1s0 .1 0 .2 0 .3.1.4v.2.2c0 .1 0 .3.1.4 0 .1 0 .3.1.4 0 .2 0 .3.1.5.1.4.1.8.2 1.2 0 .1 0 .3.1.5 0 .2.1.5.1.7.1.5.2 1.1.3 1.6.2.9.3 1.9.5 2.8 0 .3.1.5.1.8.1.5.2 1.1.3 1.6v.2c.1.3.1.7.2 1 0 .1 0 .3.1.4 0 .2.1.3.1.5v.3.2c0 .2.1.3.1.5v.2c0 .2.1.3.1.4 0 .1 0 .2.1.3v.1.1s0 0 0 0l.1.4.2 1.2.2 1.2.4 2.1.1.3v.2.2.2.3.1.1l.3-6.2s.1-2.4.3-4.6c.3-3.8 1.5-7.5 3.3-10.8 0 0 .1-.2.2-.4 0-.2.1-.5.1-.8.1-.3.1-.6.2-.9 0-.2.1-.4.1-.6s.1-.4.1-.6c.1-.2.1-.4.2-.6.1-.4.2-.8.3-1.2.2-.8.5-1.5.8-2.2.1-.3.2-.6.4-.9 1.9-4.4 4.7-8.2 8.3-11.3.3-.3.6-.5.9-.8l.1-.2z" fill="#1563ff"/><path d="m585.9 54.7-.3-1.4-.2-1.2-.6-3.1-.1-.3-.2-1s-1.3-.2-2.3.1c-.2.1-.5.2-.9.3-.1 0-.3.1-.4.1-.6.2-1.3.5-2 .7-.3.1-.7.3-1.1.4-.9.3-1.9.7-2.8 1-.4.1-.8.3-1.2.5 0 0 0 0-.1 0-.3.1-.6.2-.9.3-1.6.6-3 1.1-4 1.4-.1 0-.3.1-.4.2-.2.1-.4.1-.5.2l-.2.1-5.2 1.9-1.7.6c-.8.3-1.4.7-2 1.4-.1.1-.1.2-.2.2-.1.2-.2.3-.3.5-.1.2-.2.3-.3.5s0 .1-.1.2c0 .1-.1.1-.1.2s-.1.2-.1.2l-.1.2c-.1.1-.2.3-.3.5s-.2.4-.3.5-.1.2-.2.3c-.2.3-.4.6-.5 1-.3.5-.5 1-.8 1.5-.1.2-.3.5-.4.8-.1.1-.1.2-.1.2-.5.8-1 1.7-1.5 2.6-.1.2-.2.4-.4.6-.5.9-1.1 1.9-1.6 2.8-.2.3-.4.6-.5.9-.2.4-.5.8-.7 1.3l-.5.9-2.8 4.8 4.3-4.9s1.5-1.7 3.1-3.3c2.7-2.7 5.9-4.8 9.5-6.1.1 0 .3-.1.7-.3.3-.3.6-.5.9-.8 5.3-4.3 12-6.8 19.3-6.9h.4.5l.4-.2z" fill="#00beff"/><path d="m609.7 56.3-1.7-1.4-3-1.1c-.9-.3-1.8-.7-2.7-1-1.3-.5-2.6-1-3.9-1.4-.3-.1-.7-.2-1-.4-.1 0-.2-.1-.4-.1-.1 0-.3-.1-.4-.1-.1 0-.3-.1-.4-.1-.4-.2-.8-.3-1.1-.4-.4-.1-.7-.3-1-.4-.1 0-.3-.1-.4-.1h-.1c-.1 0-.1 0-.1 0l-3.6-1.3-.7-.2-.8-.3-1-.3-.2-.1h-.1c-.1 0-.2-.1-.3-.1-.6-.2-1-.3-1.3-.4h-.1c-.1 0-.2 0-.4 0-.3 0-.6 0-.8.1-.2 0-.3.1-.5.1 0 0-.1 0-.2 0-.3.1-.6.2-1 .4-.1 0-.3.1-.5.2s-.5.2-.9.3c-.1 0-.3.1-.4.1-.6.2-1.3.5-2 .7-.3.1-.7.3-1.1.4-.9.3-1.9.7-2.8 1-.4.1-.8.3-1.2.5 0 0 0 0-.1 0-.3.1-.6.2-.9.3-1.6.6-3 1.1-4 1.4-.1 0-.3.1-.4.2-.2.1-.4.1-.5.2h-.2l.3 1.3c.3 0 2.4-.4 4.5-.6.8-.1 1.6-.1 2.4-.1 3 0 5.9.5 8.8 1.5.1.1.3.1.4.2.1 0 .3.1.5.2h.4.5c7.4.1 14.1 2.7 19.4 7.1.2.2.5.4.7.6l.4.1.1-.1.2-.4.1-.2.5-1 .2-.4.4-.7 1.5-2.8.1-.2.1-.2z" fill="#fac900"/><path d="m562.4 54.8 5.6-.6-.1-1.4-.2.1z" fill="#fac900"/><path d="m611.2 57.7c-.3-.6-1-1.1-1.5-1.4-.6-.3-1.2-.5-1.3-.6 0 0-.6-.2-1.4-.5-.1 0-.3-.1-.5-.2-.4-.1-.8-.3-1.3-.5h-.1c-.1 0-.1-.1-.2-.1s-.2-.1-.3-.1c-4.3-1.6-10.9-4-11.2-4.1.2.1 2 1.3 3.8 2.5 3.2 2.2 5.9 5.1 7.9 8.5.1.1.3.5.6 1 0 0 0 .1.1.1.1.2.2.4.3.6.1.2.3.5.4.8.2.2.5.5.8.7l.3-.1 1.2-1.6 2.7-3.7c-.3-.8-.3-1.3-.3-1.3z" fill="#1563ff"/><path d="m612.2 58.1-.8 1.1-3.8 5.3-.2.2c-.1-.1-.1-.1-.2-.2-.2-.2-.5-.5-.8-.7-.3-.3-.6-.5-.9-.8-.2-.2-.5-.4-.7-.6-.1-.2-.2-.4-.3-.5 0-.1-.1-.1-.1-.2s-.1-.1-.1-.2c-1.9-3.3-4.5-6.1-7.7-8.3-1.8-1.3-3.8-2.5-3.8-2.5l-5.6-3.5.2.1 1 .4.8.3.7.2 3.6 1.3h.1.1.1c.1 0 .2.1.4.1.3.1.6.2 1 .4.3.1.7.2 1.1.4.1 0 .2.1.4.1.1.1.3.1.4.2.1 0 .2.1.4.1.3.1.6.2 1 .4 1.7.6 3.6 1.3 5.3 1.9.1 0 .2.1.3.1h.1c.1.1.3.1.4.2.3.1.6.2.9.3.1 0 .2.1.4.1.2.1.4.1.6.2.1 0 .1 0 .2.1 0 0 .1 0 .1.1.1 0 .2.1.4.1.2.1.5.2.7.2h.1c.1 0 .1.1.2.1h.1c.2.1.3.1.4.1.2.1.4.2.7.3.4.2.9.4 1.3.7s.8.7 1.1 1.1c0 0 .1.1.1.1v.1c0 .1.1.2.1.3 0 0 0 .1.1.1 0 .1.1.1.1.1-.1.5 0 .5 0 .6 0-.1 0-.1 0 0z" fill="#1563ff"/><path d="m630.2 124.7h-6.4c-3.1 0-6.1-1.4-8.1-3.8l-9.1-11c2.1-2 4-4.3 5.5-6.8.1-.2.3-.4.4-.6.4-.4.7-.6.8-.7 2.9-2.4 5.3-5.5 6.8-9 .9-2 1.9-4.2 1.9-4.3l2.4-5.8-.2 1.1-.1.4v.3l-.1.3-.1.8-.2 1.2-.1.7-.1.4-.2 1v.1.1.1.3c0 .1 0 .2-.1.3 0 .2-.1.4-.1.6 0 .2-.1.3-.1.5v.2c-.1.3-.1.6-.2.9 0 .1-.1.3-.1.5 0 .1 0 .2-.1.4 0 .1 0 .2-.1.4v.1c-.1.3-.1.6-.2.9s-.1.5-.1.8c0 .2-.1.4-.1.6s-.1.4-.1.6-.1.4-.1.6-.1.5-.1.7c0 .1 0 .2-.1.3-.1.4-.2.9-.2 1.3 0 .2-.1.4-.1.5 0 .2-.1.3-.1.5 0 .2-.1.5-.1.7v.2.2.2.2.3.1.3c0 .2-.1.3-.1.5v.2.2c-.2.9-.3 1.4-.3 1.5v.1.1.1c-.2 1.5-.8 2.6-1.7 3.3 0 0-.2.1-.4.3-.3.2-.4.5-.4.8 0 .2.1.5.2.7l.7.9 6.3 7.7z" fill="#fac900"/><g fill="#fff"><circle cx="562.4" cy="59.2" r="2.2"/><circle cx="550" cy="80.1" r="2.2"/><circle cx="553.8" cy="104.1" r="2.2"/><circle cx="573" cy="120.5" r="2.2"/><circle cx="596.7" cy="120" r="2.2"/><circle cx="615.3" cy="105" r="2.2"/><circle cx="620.6" cy="81.3" r="2.2"/><circle cx="608.2" cy="59.7" r="2.2"/><path d="m558.2 103.4c-.3-.5-.6-1-.8-1.4-1.4-2.5-2.4-5.2-3-8.1.6 2.9 1.7 5.6 3.1 8.1.1.4.4.9.7 1.4z"/></g><path d="m603.8 120.8-2.4 1.9-1.5 1.3 1.7-5.8.7.8 1.4 1.7z" fill="#1563ff"/><path d="m578.9 60.8c-7.8 1.9-14.3 7.1-17.8 14.1-.2.2-.4.3-.6.5-.4.3-.8.6-1.2 1-.6.5-1.1 1-1.7 1.5-1.7 1.6-3.1 3.1-3.9 4.4h-.7v-2.5l2-7.5s7.5-8.1 9.2-9.2c.7-.2 1.5-.4 2.3-.6.2 0 .3-.1.5-.1.5-.1 1.1-.2 1.7-.3.5-.1 1.1-.2 1.6-.3.3 0 .5-.1.8-.1.4-.1.9-.1 1.3-.2.3 0 .6-.1.9-.1.4 0 .7-.1 1.1-.1.9-.1 1.8-.2 2.6-.3.9-.1 1.5-.1 1.9-.2z" fill="#1563ff"/><path d="m616.1 81.3c0 .3-.1.5-.1.8s-.1.5-.1.8c0 .2-.1.5-.2.7-.3 1.2-.6 2.3-1.1 3.3-.2.5-.4.9-.6 1.4-.2.4-.4.8-.7 1.2-.1.2-.2.4-.4.6-.1.2-.3.4-.4.6-.3.4-.6.7-.9 1.1.3-1.5.4-3.1.4-4.7 0-6.3-2.2-12.1-5.8-16.6 0-.2 0-.4 0-.6s0-.4 0-.6c0-1.9-.2-3.7-.7-5.1 0-.1 0-.1 0-.2s-.1-.2-.1-.4c-.1-.4-.3-.7-.4-1h3.3s.2.1.5.4c1.9 1.5 8.7 8.2 7.3 18.3z" fill="#1563ff"/><path d="m599.1 115.2-1.1 1.8-10.1 2.5s-5.5 2.7-12.6-2.6c-.1 0-.1-.1-.2-.1-.3-.2-.5-.4-.8-.6-.1-.1-.3-.3-.4-.4-2.3-2.1-3.3-4.5-3.8-6.6 0 0 .1 0 .1.1 4.3 2.9 9.4 4.5 15 4.5 3.9 0 7.5-.8 10.8-2.3z" fill="#1563ff"/><path d="m558.3 86.9c0 2.5.3 4.9 1 7.2-.1.4-.3.7-.4 1.1-.1.2-.1.3-.2.5s-.1.4-.2.7-.1.5-.2.8c-.5 2-.6 4-.2 6.2-.4-.4-.8-.7-1.2-1.1-6.2-6.6-4.2-18-3.1-20 .7-1.3 2.1-2.8 3.9-4.4.5-.5 1.1-1 1.7-1.5.4-.3.8-.6 1.2-1 .2-.2.4-.3.6-.5-1.8 3.6-2.9 7.7-2.9 12z" fill="#fac900"/><path d="m606.3 70.3c-3.3-4.1-7.7-7.2-12.8-8.9-.1-.2-.3-.3-.4-.4 0-.1-.1-.1-.2-.2-.2-.2-.3-.3-.5-.5-.1-.1-.2-.2-.3-.3s-.2-.2-.3-.3c-.2-.1-.3-.2-.5-.4-1.3-1-2.9-2-4.4-2.8-.2-.1-.5-.2-.7-.3s-.4-.2-.6-.3c-.3-.1-.6-.3-.9-.4h-.1s0 0-.1 0l.6-2.1h.4l5.6.2s11.4 5.3 13.5 8.6c0 0 0 0 .1.1 0 .1.1.2.2.3.2.3.3.7.4 1 0 .1.1.2.1.4v.2c.6 1.9.7 3.5.7 5.1v.6c.2 0 .2.2.2.4z" fill="#fac900"/><path d="m612.5 102.4-.3 1.4-2.1 10.2-.7-.8-2.8-3.4-2.9-3.5c.5-.5 1-1 1.5-1.6.6-.1 1.3-.2 2-.3.3-.1.7-.1 1-.2.3-.1.7-.2 1-.3.2 0 .3-.1.5-.2.4-.1.9-.3 1.3-.5.3-.2.7-.3 1-.6.2.1.4 0 .5-.2z" fill="#fac900"/><path d="m619.5 87.9s-4.9 12.6-6.8 14.3c-.1.1-.2.1-.2.2-.1.1-.3.2-.5.3-.3.2-.7.4-1 .6-.4.2-.8.3-1.3.5-.2.1-.3.1-.5.2-.3.1-.7.2-1 .3-.3.1-.7.1-1 .2-.7.1-1.3.2-2 .3 3.2-3.6 5.5-8.1 6.3-13.1.3-.4.6-.7.9-1.1.1-.2.3-.4.4-.6s.2-.4.4-.6c.2-.4.5-.8.7-1.2s.4-.9.6-1.4c.4-1 .8-2.1 1.1-3.3 0-.2.1-.5.2-.7s.1-.5.1-.8.1-.5.1-.8h1.4v.8.4z" fill="#00beff"/><path d="m575.2 116.9c-.6-.2-1.2-.3-1.7-.5-9.8-3.1-14.5-8.7-15.3-13-.5-2.2-.2-4.4.2-6.2.1-.3.1-.6.2-.8s.1-.5.2-.7c.2-.6.4-1.1.6-1.6 1.7 6.2 5.6 11.5 10.8 15 0 0 .1 0 .1.1.5 2.4 1.8 4.7 3.6 6.5.1.1.3.3.4.4.3.3.6.6.9.8z" fill="#00beff"/><path d="m593.5 61.4c-2.6-.9-5.4-1.3-8.3-1.3-2.1 0-4.2.2-6.2.7h-.1c-.5 0-1 .1-1.5.1-.9.1-1.8.2-2.6.3-.4 0-.7.1-1.1.1-.3 0-.6.1-.9.1-.4 0-.9.1-1.3.2-.3 0-.6.1-.8.1-.6.1-1.1.2-1.6.3-.6.1-1.2.2-1.7.3-.2 0-.4.1-.5.1-.9.2-1.7.4-2.3.6-.5-.1-.2-.6.7-1.3 3.3-2.6 15-8.1 18.6-6.8.1.1.3.1.4.2.2 0 .3.1.5.2h.1.1c.3.1.6.3.9.4.2.1.4.2.6.3s.5.2.7.3c1.6.8 3.1 1.8 4.3 2.8 0 0 .1 0 .1.1.2.1.3.3.5.4.1.1.2.2.3.3s.2.2.3.3c.2.2.3.3.5.5.1.1.1.1.2.2-.2.2 0 .3.1.5z" fill="#00beff"/><path d="m558.3 57.5-.8 1.5 1.1-.8-.2-.7z" fill="#00beff"/><path d="m575.9 124.7h-2.7l.7-.2 1.2-.1s.8.1.8.1 0 .2 0 .2z" fill="#00beff"/><path d="m599.9 124c-.1.1-.1 0-.1 0z" fill="#1563ff"/><circle cx="585.2" cy="51.3" fill="#fff" r="2.2"/><path d="m591.8 106.8c-.1.2-.3.4-.5.6-.2.1-1.3.4-1.3.4-5.1 1-10.5.3-15.4-2.3s-8.5-6.7-10.6-11.5c0-.1-.1-.2-.2-.4-.1-.3-.2-.7-.3-1 0-.3.1-.5.2-.8.5-.9 1.5-1.2 2.4-.7.5.2.7.8 1 1.5 1.7 4 4.8 7.6 9 9.8s8.8 2.8 13.1 2c.2 0 .9-.2 1.1-.2s.5.1.7.2c1 .5 1.3 1.5.8 2.4z" fill="#00beff"/><path d="m578 66.4c.1-.2.3-.4.5-.6.2-.1 1.3-.4 1.3-.4 5.1-1 10.5-.3 15.4 2.3s8.5 6.7 10.5 11.5c0 .1.1.2.2.4.1.3.2.7.3 1 0 .3-.1.5-.2.8-.5.9-1.5 1.2-2.4.7-.5-.2-.7-.8-1-1.5-1.7-4-4.8-7.6-9-9.8s-8.8-2.8-13.1-2c-.2 0-.9.2-1.1.2s-.5-.1-.7-.2c-.8-.4-1.1-1.5-.7-2.4z" fill="#00beff"/></svg>